# AST/ASF file generated using VICON BodyLanguage
# -----------------------------------------------
:version 1.10
:name VICON
:units
  mass 1.0
  length 0.45
  angle deg
:documentation
   .ast/.asf automatically generated from VICON data using
   VICON BodyBuilder and BodyLanguage model FoxedUp or BRILLIANT.MOD
:root
   order TX TY TZ RX RY RZ
   axis XYZ
   position 0 0 0  
   orientation 0 0 0 
:bonedata
  begin
     id 1 
     name lhipjoint
     direction 0.692814 -0.645514 0.321437 
     length 2.38754 
     axis 0 0 0  XYZ
  end
  begin
     id 2 
     name lfemur
     direction 0.34202 -0.939693 0  
     length 6.41921  
     axis 0 0 20  XYZ
    dof rx ry rz
    limits (-160.0 20.0)
           (-70.0 70.0)
           (-60.0 70.0)
  end
  begin
     id 3 
     name ltibia
     direction 0.34202 -0.939693 0   
     length 6.98247   
     axis 0 0 20   XYZ
    dof rx
    limits (-10.0 170.0)
  end
  begin
     id 4 
     name lfoot
     direction 0.0947186 -0.260237 0.960888   
     length 1.83034   
     axis -90 7.62852e-016 20   XYZ
    dof rx rz
    limits (-45.0 90.0)
           (-70.0 20.0)
  end
  begin
     id 5 
     name ltoes
     direction 1.53538e-011 -4.21952e-011 1   
     length 0.920499   
     axis -90 7.62852e-016 20   XYZ
    dof rx
    limits (-90.0 20.0)
  end
  begin
     id 6 
     name rhipjoint
     direction -0.631686 -0.693949 0.345555   
     length 2.2209  
     axis 0 0 0  XYZ 
  end
  begin
     id 7 
     name rfemur
     direction -0.34202 -0.939693 0   
     length 6.49542   
     axis 0 0 -20   XYZ
    dof rx ry rz
    limits (-160.0 20.0)
           (-70.0 70.0)
           (-70.0 60.0)
  end
  begin
     id 8 
     name rtibia
     direction -0.34202 -0.939693 0   
     length 7.21712   
     axis 0 0 -20   XYZ
    dof rx
    limits (-10.0 170.0)
 end
 begin
     id 9 
     name rfoot
     direction -0.0825378 -0.226771 0.970444   
     length 1.89724  
     axis -90 -7.62852e-016 -20   XYZ
    dof rx rz
    limits (-45.0 90.0)
           (-20.0 70.0)
  end
  begin
     id 10 
     name rtoes
     direction -1.53515e-011 -4.22016e-011 1   
     length 0.955868   
     axis -90 -7.62852e-016 -20   XYZ
    dof rx
    limits (-90.0 20.0)
  end
  begin
     id 11 
     name lowerback
     direction -0.0104711 0.984802 -0.173368   
     length 1.84931   
     axis 0 0 0   XYZ
    dof rx ry rz
    limits (-20.0 45.0)
           (-30.0 30.0)
           (-30.0 30.0)
  end
  begin
     id 12 
     name upperback
     direction -0.00286433 0.999996 -0.000382853   
     length 1.85768   
     axis 0 0 0   XYZ
    dof rx ry rz
    limits (-20.0 45.0)
           (-30.0 30.0)
           (-30.0 30.0)
  end
  begin
     id 13 
     name thorax
     direction 0.00167534 0.996793 0.0800069   
     length 1.92   
     axis 0 0 0   XYZ
    dof rx ry rz
    limits (-20.0 45.0)
           (-30.0 30.0)
           (-30.0 30.0)
  end
  begin
     id 14 
     name lowerneck
     direction -0.0672491 0.995415 0.068018   
     length 1.58923   
     axis 0 0 0   XYZ
    dof rx ry rz
    limits (-20.0 45.0)
           (-30.0 30.0)
           (-30.0 30.0)
  end
  begin
     id 15 
     name upperneck
     direction 0.0958019 0.982476 -0.159884   
     length 1.60189   
     axis 0 0 0   XYZ
    dof rx ry rz
    limits (-20.0 45.0)
           (-30.0 30.0)
           (-30.0 30.0)
  end
  begin
     id 16
     name head
     direction 0.032989 0.997338 -0.0650226  
     length 1.61681  
     axis 0 0 0   XYZ
    dof rx ry rz
    limits (-20.0 45.0)
           (-30.0 30.0)
           (-30.0 30.0)
  end
  begin
     id 17 
     name lclavicle
     direction 0.954279 0.298875 -0.00496069  
     length 2.99449  
     axis 0 0 0   XYZ
    dof ry rz
    limits (-20.0 10.0)
           (0.0 20.0)
  end
  begin
     id 18 
     name lhumerus
     direction 1 -4.48985e-011 -4.2057e-027   
     length 4.79185   
     axis 180 -30 -90   XYZ
    dof rx ry rz
    limits (-60.0 90.0)
           (-90.0 90.0)
           (-90.0 90.0)
  end
  begin
     id 19
     name lradius
     direction 1 -4.48945e-011 1.15441e-028   
     length 2.65553   
     axis 180 -30 -90   XYZ
    dof rx
    limits (-10.0 170.0)
  end
  begin
     id 20
     name lwrist
     direction 1 -4.4899e-011 4.8894e-028   
     length 1.32777   
     axis -2.56392e-016 90 90   XYZ
    dof ry
    limits (-180.0 0.0)
 end
  begin
     id 21 
     name lhand
     direction 1 -4.48908e-011 9.7788e-028   
     length 0.743904   
     axis -6.23971e-016 90 90   XYZ
    dof rx rz
    limits (-90.0 90.0)
           (-45.0 45.0)
  end
  begin
     id 22 
     name lfingers
     direction 1 -4.49068e-011 1.95576e-027   
     length 0.599754   
     axis -1.24794e-015 90 90   XYZ
    dof rx
    limits (0.0 90.0)
  end
  begin
     id 23
     name lthumb
     direction 0.707107 -6.34883e-011 0.707107   
     length 0.861131   
     axis -90 45 2.85299e-015   XYZ
    dof rx rz
    limits (-45.0 45.0)
           (-45.0 45.0)
  end
  begin
     id 24 
     name rclavicle
     direction -0.957921 0.286916 0.00811568   
     length 3.06817  
     axis 0 0 0   XYZ 
    dof ry rz
    limits (-10.0 20.0)
           (-20.0 0.0)
  end
  begin
     id 25 
     name rhumerus
     direction -1 -4.48971e-011 -3.07942e-027  
     length 4.77254   
     axis 180 30 90   XYZ
    dof rx ry rz
    limits (-90.0 60.0)
           (-90.0 90.0)
           (-90.0 90.0)
  end
  begin
     id 26 
     name rradius
     direction -1 -4.48957e-011 -9.6815e-028   
     length 2.75995   
     axis 180 30 90   XYZ
    dof rx
    limits (-10.0 170.0)
  end
  begin
     id 27 
     name rwrist
     direction -1 -4.48979e-011 4.8894e-028   
     length 1.37997   
     axis -2.56392e-016 -90 -90   XYZ
    dof ry
    limits (-180.0 0.0)
  end
  begin
     id 28
     name rhand
     direction -1 -4.48906e-011 9.7788e-028   
     length 0.701619   
     axis -6.23971e-016 -90 -90   XYZ
    dof rx rz
    limits (-90.0 90.0)
           (-45.0 45.0)
  end
  begin
     id 29
     name rfingers
     direction -1 -4.49018e-011 1.95576e-027   
     length 0.565663   
     axis -1.24794e-015 -90 -90   XYZ
    dof rx
    limits (0.0 90.0)
  end
  begin
     id 30
     name rthumb
     direction -0.707107 -6.34881e-011 0.707107   
     length 0.812183   
     axis -90 -45 -2.85299e-015   XYZ
    dof rx rz
    limits (-45.0 45.0)
           (-45.0 45.0)
  end
:hierarchy
  begin
    root lhipjoint rhipjoint lowerback
    lhipjoint lfemur
    lfemur ltibia
    ltibia lfoot
    lfoot ltoes
    rhipjoint rfemur
    rfemur rtibia
    rtibia rfoot
    rfoot rtoes
    lowerback upperback
    upperback thorax
    thorax lowerneck lclavicle rclavicle
    lowerneck upperneck
    upperneck head
    lclavicle lhumerus
    lhumerus lradius
    lradius lwrist
    lwrist lhand lthumb
    lhand lfingers
    rclavicle rhumerus
    rhumerus rradius
    rradius rwrist
    rwrist rhand rthumb
    rhand rfingers
  end

#!OML:ASF F:\VICON\USERDATA\INSTALL\rory3\rory3.ASF
:FULLY-SPECIFIED
:DEGREES
841
root 0.604166 16.1249 0.157685 -0.910485 -2.23151 -2.16919
lowerback 6.56025 1.12234 -3.85328
upperback -4.68522 1.0544 -0.624863
thorax -8.70623 0.723726 1.35316
lowerneck -6.39102 -13.8795 -17.6023
upperneck 36.8527 -17.4886 0.0559236
head 15.8588 -9.95862 0.0102975
rclavicle -2.14687e-014 -2.38542e-015
rhumerus -20.7899 -9.32463 -59.3004
rradius 122.086
rwrist 31.9211
rhand -2.32764 11.016
rfingers 7.12502
rthumb 23.3591 -17.5866
lclavicle -2.14687e-014 -2.38542e-015
lhumerus -117.329 -55.7551 144.232
lradius 104.378
lwrist 44.5339
lhand 2.77713 7.29358
lfingers 7.12502
lthumb 28.2476 35.1842
rfemur 5.34967 13.4153 18.7618
rtibia 6.9689
rfoot -8.13145 -13.6479
rtoes -3.99204
lfemur 5.51731 -10.4834 -17.164
ltibia 7.95934
lfoot -9.35975 10.1348
ltoes -8.40855
842
root 0.606768 16.1219 0.156151 -1.02352 -2.38327 -2.20772
lowerback 6.62502 1.12951 -3.77897
upperback -4.58725 1.07183 -0.6159
thorax -8.63668 0.725804 1.31891
lowerneck -6.25043 -13.8954 -17.6088
upperneck 36.7938 -17.5154 0.00460395
head 15.7956 -9.98071 0.000389339
rclavicle 6.95746e-015 -1.19271e-014
rhumerus -18.8544 -10.7245 -58.4799
rradius 122.629
rwrist 32.1597
rhand -1.32493 10.9102
rfingers 7.12502
rthumb 24.3207 -17.5669
lclavicle 6.95746e-015 -1.19271e-014
lhumerus -117.568 -55.8152 144.473
lradius 104.368
lwrist 44.475
lhand 2.61192 7.18865
lfingers 7.12502
lthumb 28.0897 35.1053
rfemur 5.3232 13.5473 18.8223
rtibia 7.20775
rfoot -8.20716 -13.6232
rtoes -4.09279
lfemur 5.74946 -10.3479 -17.1629
ltibia 7.83224
lfoot -9.32774 10.1434
ltoes -8.4025
843
root 0.609635 16.1208 0.152784 -1.10192 -2.47074 -2.10972
lowerback 6.70434 1.09172 -3.85281
upperback -4.51748 1.00978 -0.635033
thorax -8.60557 0.697865 1.34858
lowerneck -6.22775 -13.8986 -17.6228
upperneck 36.857 -17.4935 -0.0842253
head 15.8118 -9.98623 -0.0311989
rclavicle -6.85807e-015 -7.95139e-015
rhumerus -16.9535 -11.9828 -57.7515
rradius 123.111
rwrist 32.3756
rhand -0.553088 10.6657
rfingers 7.12502
rthumb 25.0605 -17.7101
lclavicle -6.85807e-015 -7.95139e-015
lhumerus -117.61 -55.7785 144.494
lradius 104.33
lwrist 44.3519
lhand 2.45577 7.09741
lfingers 7.12502
lthumb 27.9404 35.0385
rfemur 5.247 13.6182 18.7148
rtibia 7.46218
rfoot -8.29203 -13.6101
rtoes -4.18725
lfemur 5.94461 -10.2718 -17.2938
ltibia 7.62564
lfoot -9.25125 10.1711
ltoes -8.46749
844
root 0.611826 16.1214 0.149394 -1.15014 -2.54639 -1.97552
lowerback 6.75281 1.06547 -3.96302
upperback -4.44757 0.958992 -0.677661
thorax -8.55722 0.676442 1.37268
lowerneck -6.25441 -13.9117 -17.5494
upperneck 36.9384 -17.4816 -0.209467
head 15.8319 -9.9882 -0.0951869
rclavicle 1.2921e-014 -3.26007e-014
rhumerus -15.1677 -13.2357 -56.9983
rradius 123.627
rwrist 32.3693
rhand 0.359548 10.3386
rfingers 7.12502
rthumb 25.9347 -17.9122
lclavicle 1.2921e-014 -3.26007e-014
lhumerus -117.561 -55.8031 144.336
lradius 104.334
lwrist 44.2292
lhand 2.44699 6.96779
lfingers 7.12502
lthumb 27.932 34.9102
rfemur 5.08108 13.6779 18.5575
rtibia 7.80049
rfoot -8.45693 -13.5811
rtoes -3.85674
lfemur 6.18884 -10.2049 -17.4496
ltibia 7.24576
lfoot -9.06541 10.2488
ltoes -8.7569
845
root 0.616642 16.1198 0.151195 -1.26355 -2.62104 -1.87084
lowerback 6.76195 1.05415 -3.98606
upperback -4.32071 0.940107 -0.732347
thorax -8.42321 0.663009 1.33209
lowerneck -6.19287 -13.9402 -17.5034
upperneck 36.9429 -17.5289 -0.25706
head 15.813 -10.01 -0.124301
rclavicle 1.8487e-014 -1.03368e-014
rhumerus -13.4174 -14.5052 -56.2567
rradius 124.078
rwrist 32.1915
rhand 1.28953 10.0115
rfingers 7.12502
rthumb 26.8249 -18.1059
lclavicle 1.8487e-014 -1.03368e-014
lhumerus -117.467 -55.8995 144.183
lradius 104.318
lwrist 44.0918
lhand 2.40923 6.89613
lfingers 7.12502
lthumb 27.8959 34.8444
rfemur 5.01398 13.7388 18.436
rtibia 8.1291
rfoot -8.62409 -13.5708
rtoes -4.01608
lfemur 6.55806 -10.1401 -17.6109
ltibia 6.82252
lfoot -8.88084 10.2846
ltoes -8.70681
846
root 0.623817 16.1157 0.156879 -1.42795 -2.6642 -1.65581
lowerback 6.69807 1.04173 -4.0882
upperback -4.1283 0.91573 -0.808855
thorax -8.17698 0.648082 1.31569
lowerneck -6.12181 -13.9828 -17.5487
upperneck 36.9524 -17.6005 -0.251913
head 15.8171 -10.0463 -0.125944
rclavicle 0 -7.95139e-016
rhumerus -11.6349 -15.728 -55.5904
rradius 124.399
rwrist 32.147
rhand 1.9754 9.67887
rfingers 7.12502
rthumb 27.4811 -18.3361
lclavicle 0 -7.95139e-016
lhumerus -117.408 -56.0462 144.167
lradius 104.259
lwrist 43.8652
lhand 2.30468 6.84596
lfingers 7.12502
lthumb 27.7959 34.8104
rfemur 5.10859 13.7747 18.1925
rtibia 8.32719
rfoot -8.7859 -13.5433
rtoes -4.26443
lfemur 6.93882 -10.1028 -17.9225
ltibia 6.51882
lfoot -8.81644 10.2925
ltoes -8.51274
